<svg xmlns="http://www.w3.org/2000/svg" height="24" viewBox="0 96 960 960" width="24" fill="#fff"><path d="M172.309 875.999q-30.308 0-51.308-21t-21-51.308V348.309q0-30.308 21-51.308t51.308-21h615.382q30.308 0 51.308 21t21 51.308v455.382q0 30.308-21 51.308t-51.308 21H172.309ZM480 598.306 160 393.691v410q0 5.385 3.462 8.847 3.462 3.462 8.847 3.462h615.382q5.385 0 8.847-3.462 3.462-3.462 3.462-8.847v-410L480 598.306ZM480 536l313.846-200H166.154L480 536ZM160 393.691V336 803.691q0 5.385 3.462 8.847 3.462 3.462 8.847 3.462H160V393.691Z"/></svg>