<svg xmlns="http://www.w3.org/2000/svg" height="24" viewBox="0 96 960 960" width="24" fill="#fff"><path d="M480 888.078Q603.539 777.617 666.77 677.27 730.001 576.923 730.001 504q0-113.616-72.385-185.808Q585.231 245.999 480 245.999q-105.231 0-177.616 72.193Q229.999 390.384 229.999 504q0 72.923 63.231 173.27Q356.461 777.617 480 888.078Zm0 80.229Q323.616 832.461 246.808 716.115 170.001 599.769 170.001 504q0-145.384 93.615-231.692Q357.231 186.001 480 186.001q122.769 0 216.384 86.307Q789.999 358.616 789.999 504q0 95.769-76.807 212.115Q636.384 832.461 480 968.307ZM369.231 609.076h73.846V506.769h73.846v102.307h73.846V432.924L480 359.078l-110.769 73.846v176.152ZM480 504Z"/></svg>