<svg xmlns="http://www.w3.org/2000/svg" height="24" viewBox="0 96 960 960" width="24" fill="#fff"><path d="M761.539 565.23q-3.462-115.077-83.808-195.423t-195.423-83.808v-59.998q69.999 1.538 131.076 28.692t106.692 72.769q45.615 45.615 72.769 106.692 27.154 61.076 28.692 131.076h-59.998Zm-160 0q-3.462-48.077-37.308-82.115-33.846-34.039-81.923-37.116v-59.998q72.999 3.077 124.383 54.653 51.384 51.577 54.846 124.576h-59.998Zm175.69 348.461q-116.691 0-231.114-55.385-114.422-55.384-204.306-145.269-89.885-89.884-145.461-204.114-55.577-114.23-55.577-230.922 0-18 12-30t30-12H313.23q15.539 0 27.116 9.577 11.576 9.577 14.346 24.731L377.615 388q2.384 14.769-.5 26.846-2.885 12.077-12.654 21.077l-92 89.923q47.385 80.462 113.001 145.385 65.615 64.923 148.539 113.231l89.384-90.923q9.769-9.769 23.115-13.884 13.346-4.116 27.346-1.731l111.075 22.615q15.154 3.385 24.731 14.654 9.577 11.269 9.577 26.808v129.69q0 18-12 30t-30 12ZM243.693 469.078l71.385-68.308q1.923-1.539 2.5-4.231.577-2.693-.193-5l-17.384-89.385q-.77-3.077-2.693-4.615-1.923-1.539-5-1.539H206.77q-2.308 0-3.847 1.539-1.538 1.538-1.538 3.846 3.076 41 13.423 83.308 10.346 42.308 28.885 84.385Zm346.46 343.383q39.769 18.539 82.962 28.347 43.192 9.807 80.731 11.653 2.308 0 3.846-1.538 1.539-1.539 1.539-3.847v-84.153q0-3.077-1.539-5.001-1.538-1.923-4.616-2.692l-83.999-17.077q-2.308-.769-4.039-.192-1.731.577-3.654 2.5l-71.231 72Zm-346.46-343.383Zm346.46 343.383Z"/></svg>