<svg xmlns="http://www.w3.org/2000/svg" height="20" width="20"><path d="M12.667 9.083q.458 0 .771-.312.312-.313.312-.771t-.312-.771q-.313-.312-.771-.312-.459 0-.771.312-.313.313-.313.771t.313.771q.312.312.771.312Zm-5.334 0q.459 0 .771-.312.313-.313.313-.771t-.313-.771q-.312-.312-.771-.312-.458 0-.771.312-.312.313-.312.771t.312.771q.313.312.771.312ZM10 13.75q1.146 0 2.115-.573.968-.573 1.573-1.573H6.312q.605 1 1.573 1.573.969.573 2.115.573Zm0 3.833q-1.562 0-2.948-.593-1.385-.594-2.417-1.625-1.031-1.032-1.625-2.417-.593-1.386-.593-2.948 0-1.583.593-2.958.594-1.375 1.625-2.407Q5.667 3.604 7.052 3.01 8.438 2.417 10 2.417q1.583 0 2.958.593 1.375.594 2.407 1.625 1.031 1.032 1.625 2.417.593 1.386.593 2.948t-.593 2.948q-.594 1.385-1.625 2.417-1.032 1.031-2.417 1.625-1.386.593-2.948.593ZM10 10Zm0 6.5q2.708 0 4.604-1.896T16.5 10q0-2.708-1.896-4.604T10 3.5q-2.708 0-4.604 1.896T3.5 10q0 2.708 1.896 4.604T10 16.5Z"/></svg>